<svg xmlns="http://www.w3.org/2000/svg" viewBox="0 0 512 512">
  <defs>
    <linearGradient id="bg" x1="0%" y1="0%" x2="100%" y2="100%">
      <stop offset="0%" style="stop-color:#4361ee"/>
      <stop offset="100%" style="stop-color:#3a0ca3"/>
    </linearGradient>
    <linearGradient id="leaf" x1="0%" y1="0%" x2="100%" y2="100%">
      <stop offset="0%" style="stop-color:#7ae582"/>
      <stop offset="100%" style="stop-color:#4ade80"/>
    </linearGradient>
  </defs>
  
  <!-- Background -->
  <rect width="512" height="512" rx="100" fill="url(#bg)"/>
  
  <!-- Leaf/Growth Symbol -->
  <g transform="translate(256, 280)">
    <!-- Stem -->
    <path d="M0 -20 Q0 60 0 100" stroke="url(#leaf)" stroke-width="16" fill="none" stroke-linecap="round"/>
    
    <!-- Main leaf -->
    <path d="M0 -20 Q-80 -100 -40 -180 Q0 -140 0 -20" fill="url(#leaf)" opacity="0.9"/>
    <path d="M0 -20 Q80 -100 40 -180 Q0 -140 0 -20" fill="url(#leaf)" opacity="0.9"/>
    
    <!-- Smaller leaves -->
    <path d="M0 20 Q-50 -20 -30 -60 Q0 -30 0 20" fill="url(#leaf)" opacity="0.7"/>
    <path d="M0 20 Q50 -20 30 -60 Q0 -30 0 20" fill="url(#leaf)" opacity="0.7"/>
    
    <!-- Center vein -->
    <path d="M0 -160 Q0 -100 0 -20" stroke="#fff" stroke-width="3" fill="none" opacity="0.3" stroke-linecap="round"/>
  </g>
  
  <!-- Circular progress indicator -->
  <circle cx="256" cy="256" r="200" fill="none" stroke="#fff" stroke-width="8" opacity="0.2"/>
  <path d="M256 56 A200 200 0 1 1 56 256" fill="none" stroke="#fff" stroke-width="8" opacity="0.4" stroke-linecap="round"/>
  
  <!-- Sparkles -->
  <circle cx="130" cy="150" r="8" fill="#fff" opacity="0.6"/>
  <circle cx="380" cy="130" r="6" fill="#fff" opacity="0.5"/>
  <circle cx="400" cy="350" r="7" fill="#fff" opacity="0.4"/>
</svg>
